IBM Plex Sans Var-Regular.ufo
<glyph name="A" format="2">
	<advance width="641"/>
	<unicode hex="0041"/>
	<anchor x="322" y="0" name="bottom"/>
	<anchor x="618" y="0" name="bottomright"/>
	<anchor x="322" y="698" name="top"/>
	<outline>
		<contour>
			<point x="618" y="0" type="line" name="hr00"/>
			<point x="374" y="698" type="line"/>
			<point x="267" y="698" type="line"/>
			<point x="23" y="0" type="line"/>
			<point x="108" y="0" type="line"/>
			<point x="178" y="206" type="line"/>
			<point x="460" y="206" type="line"/>
			<point x="530" y="0" type="line"/>
		</contour>
		<contour>
			<point x="439" y="280" type="line"/>
			<point x="198" y="280" type="line"/>
			<point x="286" y="533" type="line"/>
			<point x="316" y="620" type="line"/>
			<point x="321" y="620" type="line"/>
			<point x="351" y="533" type="line"/>
		</contour>
	</outline>
</glyph>
<glyph name="B" format="2">
	<advance width="653"/>
	<unicode hex="0042"/>
	<anchor x="307" y="0" name="bottom"/>
	<anchor x="307" y="698" name="top"/>
	<outline>
		<contour>
			<point x="93" y="0" type="line"/>
			<point x="410" y="0" type="line"/>
			<point x="513" y="0"/>
			<point x="590" y="87"/>
			<point x="590" y="202" type="curve" smooth="yes"/>
			<point x="590" y="318"/>
			<point x="503" y="361"/>
			<point x="453" y="364" type="curve"/>
			<point x="453" y="370" type="line"/>
			<point x="499" y="377"/>
			<point x="566" y="414"/>
			<point x="566" y="518" type="curve" smooth="yes" name="hr01"/>
			<point x="566" y="627"/>
			<point x="495" y="698"/>
			<point x="380" y="698" type="curve" smooth="yes"/>
			<point x="93" y="698" type="line"/>
		</contour>
		<contour>
			<point x="177" y="324" type="line"/>
			<point x="384" y="324" type="line" smooth="yes"/>
			<point x="456" y="324"/>
			<point x="500" y="286"/>
			<point x="500" y="216" type="curve" smooth="yes" name="hr02"/>
			<point x="500" y="182" type="line" smooth="yes"/>
			<point x="500" y="112"/>
			<point x="456" y="74"/>
			<point x="384" y="74" type="curve" smooth="yes"/>
			<point x="177" y="74" type="line"/>
		</contour>
		<contour>
			<point x="177" y="624" type="line"/>
			<point x="370" y="624" type="line" smooth="yes"/>
			<point x="436" y="624"/>
			<point x="476" y="589"/>
			<point x="476" y="527" type="curve" smooth="yes" name="hr03"/>
			<point x="476" y="493" type="line" smooth="yes"/>
			<point x="476" y="431"/>
			<point x="436" y="396"/>
			<point x="370" y="396" type="curve" smooth="yes"/>
			<point x="177" y="396" type="line"/>
		</contour>
	</outline>
</glyph>
<glyph name="E" format="2">
	<advance width="583"/>
	<unicode hex="0045"/>
	<anchor x="304" y="0" name="bottom"/>
	<anchor x="519" y="0" name="bottomright"/>
	<anchor x="304" y="698" name="top"/>
	<outline>
		<contour>
			<point x="519" y="0" type="line" name="hr00"/>
			<point x="519" y="74" type="line"/>
			<point x="177" y="74" type="line"/>
			<point x="177" y="316" type="line"/>
			<point x="499" y="316" type="line"/>
			<point x="499" y="390" type="line"/>
			<point x="177" y="390" type="line"/>
			<point x="177" y="624" type="line"/>
			<point x="519" y="624" type="line"/>
			<point x="519" y="698" type="line"/>
			<point x="93" y="698" type="line"/>
			<point x="93" y="0" type="line"/>
		</contour>
	</outline>
</glyph>
<glyph name="H" format="2">
	<advance width="707"/>
	<unicode hex="0048"/>
	<anchor x="354" y="0" name="bottom"/>
	<anchor x="354" y="698" name="top"/>
	<outline>
		<contour>
			<point x="530" y="0" type="line" name="hr00"/>
			<point x="614" y="0" type="line"/>
			<point x="614" y="698" type="line"/>
			<point x="530" y="698" type="line"/>
			<point x="530" y="390" type="line"/>
			<point x="177" y="390" type="line"/>
			<point x="177" y="698" type="line"/>
			<point x="93" y="698" type="line"/>
			<point x="93" y="0" type="line"/>
			<point x="177" y="0" type="line"/>
			<point x="177" y="316" type="line"/>
			<point x="530" y="316" type="line"/>
		</contour>
	</outline>
</glyph>
<glyph name="I" format="2">
	<advance width="400"/>
	<unicode hex="0049"/>
	<anchor x="200" y="0" name="bottom"/>
	<anchor x="340" y="0" name="bottomright"/>
	<anchor x="200" y="698" name="top"/>
	<outline>
		<contour>
			<point x="340" y="0" type="line" name="hr00"/>
			<point x="340" y="70" type="line"/>
			<point x="242" y="70" type="line"/>
			<point x="242" y="628" type="line"/>
			<point x="340" y="628" type="line"/>
			<point x="340" y="698" type="line"/>
			<point x="60" y="698" type="line"/>
			<point x="60" y="628" type="line"/>
			<point x="158" y="628" type="line"/>
			<point x="158" y="70" type="line"/>
			<point x="60" y="70" type="line"/>
			<point x="60" y="0" type="line"/>
		</contour>
	</outline>
</glyph>
<glyph name="J" format="2">
	<advance width="510"/>
	<unicode hex="004A"/>
	<anchor x="225" y="0" name="bottom"/>
	<anchor x="263" y="698" name="top"/>
	<outline>
		<contour>
			<point x="98" y="698" type="line" name="hr00"/>
			<point x="98" y="624" type="line"/>
			<point x="338" y="624" type="line"/>
			<point x="338" y="196" type="line" smooth="yes"/>
			<point x="338" y="107"/>
			<point x="296" y="63"/>
			<point x="224" y="63" type="curve" smooth="yes"/>
			<point x="153" y="63"/>
			<point x="117" y="105"/>
			<point x="104" y="165" type="curve"/>
			<point x="28" y="147" type="line"/>
			<point x="47" y="52"/>
			<point x="114" y="-12"/>
			<point x="222" y="-12" type="curve" smooth="yes"/>
			<point x="340" y="-12"/>
			<point x="422" y="63"/>
			<point x="422" y="181" type="curve" smooth="yes"/>
			<point x="422" y="698" type="line"/>
		</contour>
	</outline>
</glyph>
<glyph name="K" format="2">
	<advance width="634"/>
	<unicode hex="004B"/>
	<anchor x="336" y="0" name="bottom"/>
	<anchor x="321" y="698" name="top"/>
	<outline>
		<contour>
			<point x="508" y="0" type="line" name="hr00"/>
			<point x="612" y="0" type="line"/>
			<point x="334" y="399" type="line"/>
			<point x="594" y="698" type="line"/>
			<point x="491" y="698" type="line"/>
			<point x="280" y="448" type="line"/>
			<point x="180" y="327" type="line"/>
			<point x="177" y="327" type="line"/>
			<point x="177" y="448" type="line"/>
			<point x="177" y="698" type="line"/>
			<point x="93" y="698" type="line"/>
			<point x="93" y="0" type="line"/>
			<point x="177" y="0" type="line"/>
			<point x="177" y="233" type="line"/>
			<point x="276" y="343" type="line"/>
		</contour>
	</outline>
</glyph>
<glyph name="M" format="2">
	<advance width="812"/>
	<unicode hex="004D"/>
	<anchor x="406" y="0" name="bottom"/>
	<anchor x="406" y="698" name="top"/>
	<outline>
		<contour>
			<point x="93" y="0" type="line" name="hr00"/>
			<point x="175" y="0" type="line"/>
			<point x="175" y="471" type="line"/>
			<point x="175" y="588" type="line"/>
			<point x="180" y="588" type="line"/>
			<point x="239" y="471" type="line"/>
			<point x="406" y="167" type="line"/>
			<point x="573" y="471" type="line"/>
			<point x="632" y="588" type="line"/>
			<point x="637" y="588" type="line"/>
			<point x="637" y="471" type="line"/>
			<point x="637" y="0" type="line"/>
			<point x="719" y="0" type="line"/>
			<point x="719" y="698" type="line"/>
			<point x="611" y="698" type="line"/>
			<point x="479" y="451" type="line"/>
			<point x="410" y="322" type="line"/>
			<point x="405" y="322" type="line"/>
			<point x="337" y="451" type="line"/>
			<point x="205" y="698" type="line"/>
			<point x="93" y="698" type="line"/>
		</contour>
	</outline>
</glyph>
<glyph name="O" format="2">
	<advance width="708"/>
	<unicode hex="004F"/>
	<anchor x="354" y="0" name="bottom"/>
	<anchor x="354" y="698" name="top"/>
	<outline>
		<contour>
			<point x="354" y="-12" type="curve" smooth="yes" name="hr00"/>
			<point x="534" y="-12"/>
			<point x="650" y="115"/>
			<point x="650" y="349" type="curve" smooth="yes"/>
			<point x="650" y="583"/>
			<point x="534" y="710"/>
			<point x="354" y="710" type="curve" smooth="yes"/>
			<point x="174" y="710"/>
			<point x="58" y="583"/>
			<point x="58" y="349" type="curve" smooth="yes"/>
			<point x="58" y="115"/>
			<point x="174" y="-12"/>
		</contour>
		<contour>
			<point x="354" y="63" type="curve" smooth="yes"/>
			<point x="233" y="63"/>
			<point x="148" y="153"/>
			<point x="148" y="291" type="curve" smooth="yes"/>
			<point x="148" y="407" type="line" smooth="yes"/>
			<point x="148" y="545"/>
			<point x="233" y="635"/>
			<point x="354" y="635" type="curve" smooth="yes"/>
			<point x="475" y="635"/>
			<point x="560" y="545"/>
			<point x="560" y="407" type="curve" smooth="yes"/>
			<point x="560" y="291" type="line" smooth="yes"/>
			<point x="560" y="153"/>
			<point x="475" y="63"/>
		</contour>
	</outline>
</glyph>
<glyph name="T" format="2">
	<advance width="572"/>
	<unicode hex="0054"/>
	<anchor x="286" y="0" name="bottom"/>
	<anchor x="286" y="698" name="top"/>
	<outline>
		<contour>
			<point x="550" y="624" type="line" name="hr00"/>
			<point x="550" y="698" type="line"/>
			<point x="22" y="698" type="line"/>
			<point x="22" y="624" type="line"/>
			<point x="244" y="624" type="line"/>
			<point x="244" y="0" type="line"/>
			<point x="328" y="0" type="line"/>
			<point x="328" y="624" type="line"/>
		</contour>
	</outline>
</glyph>
<glyph name="X" format="2">
	<advance width="613"/>
	<unicode hex="0058"/>
	<anchor x="307" y="0" name="bottom"/>
	<anchor x="307" y="698" name="top"/>
	<outline>
		<contour>
			<point x="24" y="0" type="line" name="hr00"/>
			<point x="120" y="0" type="line"/>
			<point x="303" y="293" type="line"/>
			<point x="305" y="293" type="line"/>
			<point x="488" y="0" type="line"/>
			<point x="589" y="0" type="line"/>
			<point x="359" y="358" type="line"/>
			<point x="583" y="698" type="line"/>
			<point x="487" y="698" type="line"/>
			<point x="308" y="420" type="line"/>
			<point x="306" y="420" type="line"/>
			<point x="131" y="698" type="line"/>
			<point x="30" y="698" type="line"/>
			<point x="252" y="355" type="line"/>
		</contour>
	</outline>
</glyph>
<glyph name="Y" format="2">
	<advance width="593"/>
	<unicode hex="0059"/>
	<anchor x="297" y="0" name="bottom"/>
	<anchor x="297" y="698" name="top"/>
	<outline>
		<contour>
			<point x="337" y="0" type="line" name="hr00"/>
			<point x="337" y="279" type="line"/>
			<point x="580" y="698" type="line"/>
			<point x="484" y="698" type="line"/>
			<point x="298" y="362" type="line"/>
			<point x="295" y="362" type="line"/>
			<point x="109" y="698" type="line"/>
			<point x="13" y="698" type="line"/>
			<point x="253" y="276" type="line"/>
			<point x="253" y="0" type="line"/>
		</contour>
	</outline>
</glyph>
<glyph name="Z" format="2">
	<advance width="580"/>
	<unicode hex="005A"/>
	<anchor x="297" y="0" name="bottom"/>
	<anchor x="297" y="698" name="top"/>
	<outline>
		<contour>
			<point x="544" y="74" type="line" name="hr00"/>
			<point x="126" y="74" type="line"/>
			<point x="530" y="622" type="line"/>
			<point x="530" y="698" type="line"/>
			<point x="57" y="698" type="line"/>
			<point x="57" y="624" type="line"/>
			<point x="439" y="624" type="line"/>
			<point x="36" y="76" type="line"/>
			<point x="36" y="0" type="line"/>
			<point x="544" y="0" type="line"/>
		</contour>
	</outline>
</glyph>
<glyph name="a" format="2">
	<advance width="534"/>
	<unicode hex="0061"/>
	<anchor x="245" y="0" name="bottom"/>
	<anchor x="505" y="0" name="bottomright"/>
	<anchor x="252" y="540" name="top"/>
	<outline>
		<contour>
			<point x="505" y="0" type="line"/>
			<point x="505" y="70" type="line"/>
			<point x="446" y="70" type="line"/>
			<point x="446" y="354" type="line" smooth="yes"/>
			<point x="446" y="463"/>
			<point x="372" y="528"/>
			<point x="248" y="528" type="curve" smooth="yes"/>
			<point x="155" y="528"/>
			<point x="93" y="482"/>
			<point x="65" y="427" type="curve"/>
			<point x="113" y="382" type="line"/>
			<point x="141" y="429"/>
			<point x="182" y="459"/>
			<point x="244" y="459" type="curve" smooth="yes"/>
			<point x="326" y="459"/>
			<point x="366" y="419"/>
			<point x="366" y="346" type="curve" smooth="yes"/>
			<point x="366" y="295" type="line"/>
			<point x="264" y="295" type="line" smooth="yes"/>
			<point x="114" y="295"/>
			<point x="44" y="241"/>
			<point x="44" y="144" type="curve" smooth="yes"/>
			<point x="44" y="48"/>
			<point x="108" y="-12"/>
			<point x="217" y="-12" type="curve" smooth="yes" name="hr01"/>
			<point x="289" y="-12"/>
			<point x="344" y="21"/>
			<point x="366" y="84" type="curve"/>
			<point x="401" y="84" type="line"/>
			<point x="370" y="113" type="line"/>
			<point x="370" y="106" type="line" smooth="yes"/>
			<point x="370" y="43.41"/>
			<point x="396" y="0"/>
			<point x="460" y="0" type="curve" smooth="yes" name="hr02"/>
		</contour>
		<contour>
			<point x="366" y="235" type="line"/>
			<point x="366" y="150" type="line" smooth="yes"/>
			<point x="366" y="97"/>
			<point x="309" y="56"/>
			<point x="230" y="56" type="curve" smooth="yes" name="hr03"/>
			<point x="168" y="56"/>
			<point x="128" y="85"/>
			<point x="128" y="136" type="curve" smooth="yes"/>
			<point x="128" y="157" type="line" smooth="yes"/>
			<point x="128" y="207"/>
			<point x="169" y="235"/>
			<point x="260" y="235" type="curve" smooth="yes"/>
		</contour>
	</outline>
</glyph>
<glyph name="c" format="2">
	<advance width="503"/>
	<unicode hex="0063"/>
	<anchor x="276" y="0" name="bottom"/>
	<anchor x="276" y="540" name="top"/>
	<outline>
		<contour>
			<point x="277" y="-12" type="curve" smooth="yes" name="hr00"/>
			<point x="375" y="-12"/>
			<point x="442" y="36"/>
			<point x="475" y="110" type="curve"/>
			<point x="417" y="149" type="line"/>
			<point x="389" y="90"/>
			<point x="342" y="59"/>
			<point x="277" y="59" type="curve" smooth="yes"/>
			<point x="182" y="59"/>
			<point x="133" y="124"/>
			<point x="133" y="214" type="curve" smooth="yes"/>
			<point x="133" y="302" type="line" smooth="yes"/>
			<point x="133" y="392"/>
			<point x="182" y="457"/>
			<point x="277" y="457" type="curve" smooth="yes"/>
			<point x="340" y="457"/>
			<point x="384" y="426"/>
			<point x="403" y="373" type="curve"/>
			<point x="470" y="407" type="line"/>
			<point x="440" y="478"/>
			<point x="379" y="528"/>
			<point x="277" y="528" type="curve" smooth="yes"/>
			<point x="132" y="528"/>
			<point x="47" y="423"/>
			<point x="47" y="258" type="curve" smooth="yes"/>
			<point x="47" y="93"/>
			<point x="132" y="-12"/>
		</contour>
	</outline>
</glyph>
<glyph name="i" format="2">
	<advance width="250"/>
	<unicode hex="0069"/>
	<anchor x="125" y="0" name="bottom"/>
	<anchor x="165" y="0" name="bottomright"/>
	<outline>
		<contour>
			<point x="125" y="637" type="curve" smooth="yes"/>
			<point x="159" y="637"/>
			<point x="174" y="655"/>
			<point x="174" y="682" type="curve" smooth="yes"/>
			<point x="174" y="695" type="line" smooth="yes"/>
			<point x="174" y="722"/>
			<point x="159" y="740"/>
			<point x="125" y="740" type="curve" smooth="yes"/>
			<point x="91" y="740"/>
			<point x="76" y="722"/>
			<point x="76" y="695" type="curve" smooth="yes"/>
			<point x="76" y="682" type="line" smooth="yes"/>
			<point x="76" y="655"/>
			<point x="91" y="637"/>
		</contour>
		<contour>
			<point x="85" y="0" type="line" name="hr01"/>
			<point x="165" y="0" type="line"/>
			<point x="165" y="516" type="line"/>
			<point x="85" y="516" type="line"/>
		</contour>
	</outline>
</glyph>
<glyph name="j" format="2">
	<advance width="250"/>
	<unicode hex="006A"/>
	<outline>
		<contour>
			<point x="85" y="-130" type="line"/>
			<point x="1" y="-130" type="line"/>
			<point x="1" y="-200" type="line"/>
			<point x="53" y="-200" type="line" smooth="yes"/>
			<point x="130" y="-200"/>
			<point x="165" y="-151"/>
			<point x="165" y="-80" type="curve" smooth="yes"/>
			<point x="165" y="516" type="line"/>
			<point x="85" y="516" type="line"/>
		</contour>
		<contour>
			<point x="125" y="637" type="curve" smooth="yes"/>
			<point x="159" y="637"/>
			<point x="174" y="655"/>
			<point x="174" y="682" type="curve" smooth="yes" name="hr01"/>
			<point x="174" y="695" type="line" smooth="yes"/>
			<point x="174" y="722"/>
			<point x="159" y="740"/>
			<point x="125" y="740" type="curve" smooth="yes"/>
			<point x="91" y="740"/>
			<point x="76" y="722"/>
			<point x="76" y="695" type="curve" smooth="yes"/>
			<point x="76" y="682" type="line" smooth="yes"/>
			<point x="76" y="655"/>
			<point x="91" y="637"/>
		</contour>
	</outline>
</glyph>
<glyph name="o" format="2">
	<advance width="560"/>
	<unicode hex="006F"/>
	<anchor x="280" y="0" name="bottom"/>
	<anchor x="280" y="540" name="top"/>
	<outline>
		<contour>
			<point x="280" y="-12" type="curve" smooth="yes" name="hr00"/>
			<point x="418" y="-12"/>
			<point x="513" y="94"/>
			<point x="513" y="258" type="curve" smooth="yes"/>
			<point x="513" y="422"/>
			<point x="418" y="528"/>
			<point x="280" y="528" type="curve" smooth="yes"/>
			<point x="142" y="528"/>
			<point x="47" y="422"/>
			<point x="47" y="258" type="curve" smooth="yes"/>
			<point x="47" y="94"/>
			<point x="142" y="-12"/>
		</contour>
		<contour>
			<point x="280" y="59" type="curve" smooth="yes"/>
			<point x="194" y="59"/>
			<point x="133" y="112"/>
			<point x="133" y="221" type="curve" smooth="yes"/>
			<point x="133" y="295" type="line" smooth="yes"/>
			<point x="133" y="404"/>
			<point x="194" y="457"/>
			<point x="280" y="457" type="curve" smooth="yes"/>
			<point x="366" y="457"/>
			<point x="427" y="404"/>
			<point x="427" y="295" type="curve" smooth="yes"/>
			<point x="427" y="221" type="line" smooth="yes"/>
			<point x="427" y="112"/>
			<point x="366" y="59"/>
		</contour>
	</outline>
</glyph>
<glyph name="x" format="2">
	<advance width="507"/>
	<unicode hex="0078"/>
	<anchor x="254" y="0" name="bottom"/>
	<anchor x="254" y="540" name="top"/>
	<outline>
		<contour>
			<point x="21" y="0" type="line" name="hr00"/>
			<point x="110" y="0" type="line"/>
			<point x="255" y="202" type="line"/>
			<point x="258" y="202" type="line"/>
			<point x="392" y="0" type="line"/>
			<point x="486" y="0" type="line"/>
			<point x="300" y="266" type="line"/>
			<point x="482" y="516" type="line"/>
			<point x="393" y="516" type="line"/>
			<point x="257" y="324" type="line"/>
			<point x="254" y="324" type="line"/>
			<point x="123" y="516" type="line"/>
			<point x="29" y="516" type="line"/>
			<point x="212" y="260" type="line"/>
		</contour>
	</outline>
</glyph>
<glyph name="y" format="2">
	<advance width="499"/>
	<unicode hex="0079"/>
	<anchor x="392" y="0" name="bottom"/>
	<anchor x="250" y="540" name="top"/>
	<outline>
		<contour>
			<point x="278" y="165" type="line" name="hr00"/>
			<point x="250" y="81" type="line"/>
			<point x="245" y="81" type="line"/>
			<point x="221" y="165" type="line"/>
			<point x="97" y="516" type="line"/>
			<point x="17" y="516" type="line"/>
			<point x="210" y="-20" type="line"/>
			<point x="171" y="-130" type="line"/>
			<point x="90" y="-130" type="line"/>
			<point x="90" y="-200" type="line"/>
			<point x="131" y="-200" type="line" smooth="yes"/>
			<point x="207" y="-200"/>
			<point x="228" y="-182"/>
			<point x="251" y="-120" type="curve" smooth="yes"/>
			<point x="482" y="516" type="line"/>
			<point x="403" y="516" type="line"/>
		</contour>
	</outline>
</glyph>
<glyph name="macron" format="2">
	<advance width="600"/>
	<unicode hex="00AF"/>
	<anchor x="300" y="540" name="_top"/>
	<outline>
		<contour>
			<point x="160" y="637" type="line" name="hr00"/>
			<point x="440" y="637" type="line"/>
			<point x="440" y="705" type="line"/>
			<point x="160" y="705" type="line"/>
		</contour>
	</outline>
</glyph>
<glyph name="acute" format="2">
	<advance width="600"/>
	<unicode hex="00B4"/>
	<anchor x="300" y="540" name="_top"/>
	<outline>
		<contour>
			<point x="413" y="744" type="line" name="hr00"/>
			<point x="340" y="779" type="line"/>
			<point x="255" y="609" type="line"/>
			<point x="307" y="585" type="line"/>
		</contour>
	</outline>
</glyph>
<glyph name="AE" format="2">
	<advance width="907"/>
	<unicode hex="00C6"/>
	<anchor x="591" y="698" name="top"/>
	<outline>
		<contour>
			<point x="417" y="0" type="line" name="hr00"/>
			<point x="843" y="0" type="line"/>
			<point x="843" y="74" type="line"/>
			<point x="500" y="74" type="line"/>
			<point x="500" y="316" type="line"/>
			<point x="823" y="316" type="line"/>
			<point x="823" y="390" type="line"/>
			<point x="500" y="390" type="line"/>
			<point x="500" y="624" type="line"/>
			<point x="843" y="624" type="line"/>
			<point x="843" y="698" type="line"/>
			<point x="361" y="698" type="line"/>
			<point x="4" y="0" type="line"/>
			<point x="90" y="0" type="line"/>
			<point x="192" y="205" type="line"/>
			<point x="417" y="205" type="line"/>
		</contour>
		<contour>
			<point x="417" y="624" type="line"/>
			<point x="417" y="279" type="line"/>
			<point x="227" y="279" type="line"/>
			<point x="404" y="624" type="line"/>
		</contour>
	</outline>
</glyph>
<glyph name="dotlessi" format="2">
	<advance width="250"/>
	<unicode hex="0131"/>
	<anchor x="125" y="540" name="top"/>
	<outline>
		<contour>
			<point x="165" y="0" type="line" name="hr00"/>
			<point x="165" y="516" type="line"/>
			<point x="85" y="516" type="line"/>
			<point x="85" y="0" type="line"/>
		</contour>
	</outline>
</glyph>
<glyph name="Lambda" format="2">
	<advance width="629"/>
	<unicode hex="039B"/>
	<outline>
		<contour>
			<point x="261" y="698" type="line"/>
			<point x="23" y="0" type="line"/>
			<point x="108" y="0" type="line"/>
			<point x="223" y="352" type="line"/>
			<point x="310" y="620" type="line"/>
			<point x="315" y="620" type="line"/>
			<point x="403" y="352" type="line"/>
			<point x="518" y="0" type="line"/>
			<point x="606" y="0" type="line"/>
			<point x="368" y="698" type="line"/>
		</contour>
	</outline>
</glyph>
<glyph name="Xi" format="2">
	<advance width="584"/>
	<unicode hex="039E"/>
	<outline>
		<contour>
			<point x="64" y="624" type="line"/>
			<point x="520" y="624" type="line"/>
			<point x="520" y="698" type="line"/>
			<point x="64" y="698" type="line"/>
		</contour>
		<contour>
			<point x="104" y="316" type="line"/>
			<point x="480" y="316" type="line"/>
			<point x="480" y="390" type="line"/>
			<point x="104" y="390" type="line"/>
		</contour>
		<contour>
			<point x="64" y="0" type="line"/>
			<point x="520" y="0" type="line"/>
			<point x="520" y="74" type="line"/>
			<point x="64" y="74" type="line"/>
		</contour>
	</outline>
</glyph>
<glyph name="delta" format="2">
	<advance width="560"/>
	<unicode hex="03B4"/>
	<outline>
		<contour>
			<point x="314" y="488" type="curve"/>
			<point x="262" y="534" type="line"/>
			<point x="262" y="516" type="line"/>
			<point x="148" y="516"/>
			<point x="47" y="424"/>
			<point x="47" y="250" type="curve" smooth="yes"/>
			<point x="47" y="94"/>
			<point x="142" y="-12"/>
			<point x="280" y="-12" type="curve" smooth="yes"/>
			<point x="418" y="-12"/>
			<point x="513" y="91"/>
			<point x="513" y="259" type="curve" smooth="yes"/>
			<point x="513" y="367"/>
			<point x="468" y="449"/>
			<point x="332" y="557" type="curve" smooth="yes"/>
			<point x="189" y="671" type="line"/>
			<point x="189" y="675" type="line"/>
			<point x="259" y="670" type="line"/>
			<point x="459" y="670" type="line"/>
			<point x="459" y="740" type="line"/>
			<point x="117" y="740" type="line"/>
			<point x="117" y="647" type="line"/>
			<point x="286" y="500" type="line" smooth="yes"/>
			<point x="405" y="396"/>
			<point x="427" y="345"/>
			<point x="427" y="241" type="curve"/>
			<point x="427" y="223" type="line" smooth="yes"/>
			<point x="427" y="112"/>
			<point x="366" y="59"/>
			<point x="280" y="59" type="curve" smooth="yes"/>
			<point x="194" y="59"/>
			<point x="133" y="112"/>
			<point x="133" y="223" type="curve" smooth="yes"/>
			<point x="133" y="277" type="line" smooth="yes"/>
			<point x="133" y="410"/>
			<point x="213" y="481"/>
		</contour>
	</outline>
</glyph>
<glyph name="eta" format="2">
	<advance width="573"/>
	<unicode hex="03B7"/>
	<anchor x="295" y="540" name="top"/>
	<outline>
		<contour>
			<point x="170" y="0" type="line"/>
			<point x="170" y="358" type="line" smooth="yes"/>
			<point x="170" y="424"/>
			<point x="232" y="456"/>
			<point x="296" y="456" type="curve" smooth="yes"/>
			<point x="373" y="456"/>
			<point x="413" y="409"/>
			<point x="413" y="317" type="curve" smooth="yes"/>
			<point x="413" y="-200" type="line"/>
			<point x="493" y="-200" type="line"/>
			<point x="493" y="331" type="line" smooth="yes"/>
			<point x="493" y="456"/>
			<point x="426" y="528"/>
			<point x="320" y="528" type="curve" smooth="yes"/>
			<point x="243" y="528"/>
			<point x="199" y="490"/>
			<point x="174" y="432" type="curve"/>
			<point x="125" y="432" type="line"/>
			<point x="170" y="427" type="line"/>
			<point x="170" y="429" type="line" smooth="yes"/>
			<point x="170" y="480"/>
			<point x="141" y="516"/>
			<point x="85" y="516" type="curve" smooth="yes"/>
			<point x="31" y="516" type="line"/>
			<point x="31" y="446" type="line"/>
			<point x="90" y="446" type="line"/>
			<point x="90" y="0" type="line"/>
		</contour>
	</outline>
</glyph>
<glyph name="iota" format="2">
	<advance width="295"/>
	<unicode hex="03B9"/>
	<anchor x="132" y="540" name="top"/>
	<outline>
		<contour>
			<point x="270" y="70" type="line"/>
			<point x="165" y="70" type="line"/>
			<point x="165" y="516" type="line"/>
			<point x="85" y="516" type="line"/>
			<point x="85" y="85" type="line"/>
			<point x="85" y="35"/>
			<point x="115" y="0"/>
			<point x="170" y="0" type="curve" smooth="yes"/>
			<point x="270" y="0" type="line"/>
		</contour>
	</outline>
</glyph>
<glyph name="tau" format="2">
	<advance width="477"/>
	<unicode hex="03C4"/>
	<outline>
		<contour>
			<point x="383" y="0" type="line"/>
			<point x="383" y="70" type="line"/>
			<point x="268" y="70" type="line"/>
			<point x="268" y="446" type="line"/>
			<point x="445" y="446" type="line"/>
			<point x="445" y="516" type="line"/>
			<point x="20" y="516" type="line"/>
			<point x="20" y="446" type="line"/>
			<point x="188" y="446" type="line"/>
			<point x="188" y="85" type="line" smooth="yes"/>
			<point x="188" y="35"/>
			<point x="218" y="0"/>
			<point x="273" y="0" type="curve" smooth="yes"/>
		</contour>
	</outline>
</glyph>
<glyph name="upsilon" format="2">
	<advance width="568"/>
	<unicode hex="03C5"/>
	<anchor x="284" y="540" name="top"/>
	<outline>
		<contour>
			<point x="160" y="516" type="line"/>
			<point x="80" y="516" type="line"/>
			<point x="80" y="246" type="line" smooth="yes"/>
			<point x="80" y="68"/>
			<point x="149" y="-12"/>
			<point x="284" y="-12" type="curve" smooth="yes"/>
			<point x="419" y="-12"/>
			<point x="488" y="68"/>
			<point x="488" y="246" type="curve" smooth="yes"/>
			<point x="488" y="516" type="line"/>
			<point x="408" y="516" type="line"/>
			<point x="408" y="234" type="line" smooth="yes"/>
			<point x="408" y="114"/>
			<point x="372" y="59"/>
			<point x="284" y="59" type="curve" smooth="yes"/>
			<point x="196" y="59"/>
			<point x="160" y="114"/>
			<point x="160" y="234" type="curve" smooth="yes"/>
		</contour>
	</outline>
</glyph>
<glyph name="uni0413" format="2">
	<advance width="499"/>
	<unicode hex="0413"/>
	<anchor x="280" y="698" name="top"/>
	<outline>
		<contour>
			<point x="93" y="0" type="line"/>
			<point x="177" y="0" type="line"/>
			<point x="177" y="624" type="line"/>
			<point x="473" y="624" type="line"/>
			<point x="473" y="698" type="line"/>
			<point x="93" y="698" type="line"/>
		</contour>
	</outline>
</glyph>
<glyph name="uni0426" format="2">
	<advance width="730"/>
	<unicode hex="0426"/>
	<outline>
		<contour>
			<point x="621" y="-150" type="line"/>
			<point x="698" y="-150" type="line"/>
			<point x="698" y="74" type="line"/>
			<point x="600" y="74" type="line"/>
			<point x="600" y="698" type="line"/>
			<point x="516" y="698" type="line"/>
			<point x="516" y="74" type="line"/>
			<point x="177" y="74" type="line"/>
			<point x="177" y="698" type="line"/>
			<point x="93" y="698" type="line"/>
			<point x="93" y="0" type="line"/>
			<point x="621" y="0" type="line"/>
		</contour>
	</outline>
</glyph>
<glyph name="uni0428" format="2">
	<advance width="956"/>
	<unicode hex="0428"/>
	<outline>
		<contour>
			<point x="93" y="0" type="line"/>
			<point x="863" y="0" type="line"/>
			<point x="863" y="698" type="line"/>
			<point x="779" y="698" type="line"/>
			<point x="779" y="74" type="line"/>
			<point x="520" y="74" type="line"/>
			<point x="520" y="698" type="line"/>
			<point x="436" y="698" type="line"/>
			<point x="436" y="74" type="line"/>
			<point x="177" y="74" type="line"/>
			<point x="177" y="698" type="line"/>
			<point x="93" y="698" type="line"/>
		</contour>
	</outline>
</glyph>
<glyph name="uni0429" format="2">
	<advance width="993"/>
	<unicode hex="0429"/>
	<outline>
		<contour>
			<point x="884" y="-150" type="line"/>
			<point x="961" y="-150" type="line"/>
			<point x="961" y="74" type="line"/>
			<point x="863" y="74" type="line"/>
			<point x="863" y="698" type="line"/>
			<point x="779" y="698" type="line"/>
			<point x="779" y="74" type="line"/>
			<point x="520" y="74" type="line"/>
			<point x="520" y="698" type="line"/>
			<point x="436" y="698" type="line"/>
			<point x="436" y="74" type="line"/>
			<point x="177" y="74" type="line"/>
			<point x="177" y="698" type="line"/>
			<point x="93" y="698" type="line"/>
			<point x="93" y="0" type="line"/>
			<point x="884" y="0" type="line"/>
		</contour>
	</outline>
</glyph>
<glyph name="uni0438" format="2">
	<advance width="588"/>
	<unicode hex="0438"/>
	<anchor x="295" y="0" name="bottom"/>
	<anchor x="295" y="540" name="top"/>
	<outline>
		<contour>
			<point x="85" y="0" type="line"/>
			<point x="159" y="0" type="line"/>
			<point x="365" y="300" type="line"/>
			<point x="429" y="410" type="line"/>
			<point x="433" y="410" type="line"/>
			<point x="425" y="286" type="line"/>
			<point x="425" y="0" type="line"/>
			<point x="503" y="0" type="line"/>
			<point x="503" y="516" type="line"/>
			<point x="429" y="516" type="line"/>
			<point x="223" y="216" type="line"/>
			<point x="159" y="106" type="line"/>
			<point x="155" y="106" type="line"/>
			<point x="163" y="230" type="line"/>
			<point x="163" y="516" type="line"/>
			<point x="85" y="516" type="line"/>
		</contour>
	</outline>
</glyph>
<glyph name="uni0442" format="2">
	<advance width="472"/>
	<unicode hex="0442"/>
	<outline>
		<contour>
			<point x="196" y="0" type="line"/>
			<point x="276" y="0" type="line"/>
			<point x="276" y="446" type="line"/>
			<point x="452" y="446" type="line"/>
			<point x="452" y="516" type="line"/>
			<point x="20" y="516" type="line"/>
			<point x="20" y="446" type="line"/>
			<point x="196" y="446" type="line"/>
		</contour>
	</outline>
</glyph>
<glyph name="uni0446" format="2">
	<advance width="600"/>
	<unicode hex="0446"/>
	<outline>
		<contour>
			<point x="501" y="-140" type="line"/>
			<point x="574" y="-140" type="line"/>
			<point x="574" y="70" type="line"/>
			<point x="488" y="70" type="line"/>
			<point x="488" y="516" type="line"/>
			<point x="408" y="516" type="line"/>
			<point x="408" y="70" type="line"/>
			<point x="165" y="70" type="line"/>
			<point x="165" y="516" type="line"/>
			<point x="85" y="516" type="line"/>
			<point x="85" y="0" type="line"/>
			<point x="501" y="0" type="line"/>
		</contour>
	</outline>
</glyph>
<glyph name="uni0448" format="2">
	<advance width="798"/>
	<unicode hex="0448"/>
	<outline>
		<contour>
			<point x="85" y="0" type="line"/>
			<point x="713" y="0" type="line"/>
			<point x="713" y="516" type="line"/>
			<point x="633" y="516" type="line"/>
			<point x="633" y="70" type="line"/>
			<point x="439" y="70" type="line"/>
			<point x="439" y="516" type="line"/>
			<point x="359" y="516" type="line"/>
			<point x="359" y="70" type="line"/>
			<point x="165" y="70" type="line"/>
			<point x="165" y="516" type="line"/>
			<point x="85" y="516" type="line"/>
		</contour>
	</outline>
</glyph>
<glyph name="uni0472" format="2">
	<advance width="708"/>
	<unicode hex="0472"/>
	<anchor x="354" y="0" name="bottom"/>
	<anchor x="354" y="698" name="top"/>
	<outline>
		<contour>
			<point x="354" y="-12" type="curve" smooth="yes"/>
			<point x="534" y="-12"/>
			<point x="650" y="115"/>
			<point x="650" y="349" type="curve" smooth="yes"/>
			<point x="650" y="583"/>
			<point x="534" y="710"/>
			<point x="354" y="710" type="curve" smooth="yes"/>
			<point x="174" y="710"/>
			<point x="58" y="583"/>
			<point x="58" y="349" type="curve" smooth="yes"/>
			<point x="58" y="115"/>
			<point x="174" y="-12"/>
		</contour>
		<contour>
			<point x="354" y="63" type="curve" smooth="yes"/>
			<point x="233" y="63"/>
			<point x="148" y="153"/>
			<point x="148" y="291" type="curve" smooth="yes"/>
			<point x="148" y="331" type="line"/>
			<point x="119" y="287" type="line"/>
			<point x="161" y="334"/>
			<point x="193" y="351"/>
			<point x="233" y="351" type="curve" smooth="yes"/>
			<point x="275" y="351"/>
			<point x="307" y="339"/>
			<point x="344" y="321" type="curve" smooth="yes"/>
			<point x="390" y="299"/>
			<point x="421" y="288"/>
			<point x="470" y="288" type="curve" smooth="yes"/>
			<point x="513" y="288"/>
			<point x="560" y="310"/>
			<point x="576" y="337" type="curve"/>
			<point x="560" y="336" type="line"/>
			<point x="560" y="291" type="line" smooth="yes"/>
			<point x="560" y="153"/>
			<point x="475" y="63"/>
		</contour>
		<contour>
			<point x="354" y="635" type="curve" smooth="yes"/>
			<point x="475" y="635"/>
			<point x="560" y="545"/>
			<point x="560" y="407" type="curve" smooth="yes"/>
			<point x="560" y="368" type="line"/>
			<point x="589" y="419" type="line"/>
			<point x="547" y="372"/>
			<point x="515" y="355"/>
			<point x="475" y="355" type="curve" smooth="yes"/>
			<point x="433" y="355"/>
			<point x="401" y="367"/>
			<point x="364" y="385" type="curve" smooth="yes"/>
			<point x="318" y="407"/>
			<point x="287" y="418"/>
			<point x="238" y="418" type="curve" smooth="yes"/>
			<point x="192" y="418"/>
			<point x="150" y="395"/>
			<point x="131" y="370" type="curve"/>
			<point x="148" y="363" type="line"/>
			<point x="148" y="407" type="line" smooth="yes"/>
			<point x="148" y="545"/>
			<point x="233" y="635"/>
		</contour>
	</outline>
</glyph>
<glyph name="uni0491" format="2">
	<advance width="435"/>
	<unicode hex="0491"/>
	<outline>
		<contour>
			<point x="85" y="0" type="line"/>
			<point x="165" y="0" type="line"/>
			<point x="165" y="446" type="line"/>
			<point x="411" y="446" type="line"/>
			<point x="411" y="656" type="line"/>
			<point x="338" y="656" type="line"/>
			<point x="338" y="516" type="line"/>
			<point x="85" y="516" type="line"/>
		</contour>
	</outline>
</glyph>
<glyph name="Delta" format="2">
	<advance width="642"/>
	<unicode hex="2206"/>
	<outline>
		<contour>
			<point x="50" y="0" type="line" name="hr00"/>
			<point x="592" y="0" type="line"/>
			<point x="592" y="75" type="line"/>
			<point x="375" y="698" type="line"/>
			<point x="268" y="698" type="line"/>
			<point x="50" y="75" type="line"/>
		</contour>
		<contour>
			<point x="505" y="74" type="line"/>
			<point x="135" y="74" type="line"/>
			<point x="261" y="451" type="line"/>
			<point x="314" y="611" type="line"/>
			<point x="325" y="611" type="line"/>
			<point x="378" y="451" type="line"/>
		</contour>
	</outline>
</glyph>
<glyph name="acute.case" format="2">
	<advance width="600"/>
	<anchor x="300" y="698" name="_top"/>
	<outline>
		<contour>
			<point x="413" y="914" type="line" name="hr00"/>
			<point x="340" y="949" type="line"/>
			<point x="255" y="779" type="line"/>
			<point x="307" y="755" type="line"/>
		</contour>
	</outline>
</glyph>
<glyph name="breve.cyrl_case" format="2">
	<advance width="600"/>
	<anchor x="301" y="698" name="_top"/>
	<outline>
		<contour>
			<point x="300" y="766" type="curve" smooth="yes"/>
			<point x="372" y="766"/>
			<point x="412" y="797"/>
			<point x="437" y="844" type="curve" smooth="yes"/>
			<point x="457" y="882" type="line"/>
			<point x="387" y="913" type="line"/>
			<point x="352" y="831" type="line"/>
			<point x="336" y="827"/>
			<point x="316" y="825"/>
			<point x="300" y="825" type="curve" smooth="yes"/>
			<point x="284" y="825"/>
			<point x="264" y="827"/>
			<point x="248" y="831" type="curve"/>
			<point x="213" y="913" type="line"/>
			<point x="143" y="882" type="line"/>
			<point x="163" y="844" type="line" smooth="yes"/>
			<point x="188" y="797"/>
			<point x="228" y="766"/>
		</contour>
	</outline>
</glyph>
<glyph name="grave.case" format="2">
	<advance width="600"/>
	<anchor x="300" y="698" name="_top"/>
	<outline>
		<contour>
			<point x="293" y="755" type="line" name="hr00"/>
			<point x="345" y="779" type="line"/>
			<point x="260" y="949" type="line"/>
			<point x="187" y="914" type="line"/>
		</contour>
	</outline>
</glyph>
<glyph name="hungarumlaut.case" format="2">
	<advance width="600"/>
	<anchor x="300" y="698" name="_top"/>
	<outline>
		<contour>
			<point x="333" y="915" type="line" name="hr00"/>
			<point x="264" y="948" type="line"/>
			<point x="179" y="778" type="line"/>
			<point x="227" y="756" type="line"/>
		</contour>
		<contour>
			<point x="493" y="915" type="line"/>
			<point x="424" y="948" type="line"/>
			<point x="339" y="778" type="line"/>
			<point x="387" y="756" type="line"/>
		</contour>
	</outline>
</glyph>
<glyph name="macron.case" format="2">
	<advance width="600"/>
	<anchor x="300" y="698" name="_top"/>
	<outline>
		<contour>
			<point x="160" y="807" type="line" name="hr00"/>
			<point x="440" y="807" type="line"/>
			<point x="440" y="875" type="line"/>
			<point x="160" y="875" type="line"/>
		</contour>
	</outline>
</glyph>
<glyph name="tonos.case" format="2">
	<advance width="600"/>
	<anchor x="312" y="540" name="_topleft"/>
	<outline>
		<contour>
			<point x="388" y="769" type="line"/>
			<point x="308" y="780" type="line"/>
			<point x="279" y="592" type="line"/>
			<point x="336" y="585" type="line"/>
		</contour>
	</outline>
</glyph>
<glyph name="uni03BC" format="2">
	<advance width="578"/>
	<outline>
		<contour>
			<point x="165" y="-200" type="line"/>
			<point x="165" y="-65" type="line"/>
			<point x="148" y="84" type="line"/>
			<point x="152" y="84" type="line"/>
			<point x="170" y="24"/>
			<point x="214" y="-12"/>
			<point x="278" y="-12" type="curve" smooth="yes"/>
			<point x="338" y="-12"/>
			<point x="380" y="20"/>
			<point x="404" y="84" type="curve"/>
			<point x="453" y="84" type="line"/>
			<point x="408" y="89" type="line"/>
			<point x="408" y="87" type="line" smooth="yes"/>
			<point x="408" y="37"/>
			<point x="437" y="0"/>
			<point x="493" y="0" type="curve" smooth="yes"/>
			<point x="547" y="0" type="line"/>
			<point x="547" y="70" type="line"/>
			<point x="488" y="70" type="line"/>
			<point x="488" y="516" type="line"/>
			<point x="408" y="516" type="line"/>
			<point x="408" y="160" type="line" smooth="yes"/>
			<point x="408" y="92"/>
			<point x="346" y="60"/>
			<point x="283" y="60" type="curve" smooth="yes"/>
			<point x="206" y="60"/>
			<point x="165" y="107"/>
			<point x="165" y="199" type="curve" smooth="yes"/>
			<point x="165" y="516" type="line"/>
			<point x="85" y="516" type="line"/>
			<point x="85" y="-200" type="line"/>
		</contour>
	</outline>
</glyph>
<glyph name="uni040F" format="2">
	<advance width="693"/>
	<outline>
		<contour>
			<point x="308" y="-150" type="line"/>
			<point x="385" y="-150" type="line"/>
			<point x="385" y="0" type="line"/>
			<point x="600" y="0" type="line"/>
			<point x="600" y="698" type="line"/>
			<point x="516" y="698" type="line"/>
			<point x="516" y="74" type="line"/>
			<point x="177" y="74" type="line"/>
			<point x="177" y="698" type="line"/>
			<point x="93" y="698" type="line"/>
			<point x="93" y="0" type="line"/>
			<point x="308" y="0" type="line"/>
		</contour>
	</outline>
</glyph>
<glyph name="uni043D" format="2">
	<advance width="588"/>
	<outline>
		<contour>
			<point x="85" y="0" type="line"/>
			<point x="165" y="0" type="line"/>
			<point x="165" y="231" type="line"/>
			<point x="423" y="231" type="line"/>
			<point x="423" y="0" type="line"/>
			<point x="503" y="0" type="line"/>
			<point x="503" y="516" type="line"/>
			<point x="423" y="516" type="line"/>
			<point x="423" y="301" type="line"/>
			<point x="165" y="301" type="line"/>
			<point x="165" y="516" type="line"/>
			<point x="85" y="516" type="line"/>
		</contour>
	</outline>
</glyph>
<glyph name="uni043F" format="2">
	<advance width="573"/>
	<anchor x="288" y="0" name="bottom"/>
	<anchor x="288" y="540" name="top"/>
	<outline>
		<contour>
			<point x="85" y="0" type="line"/>
			<point x="165" y="0" type="line"/>
			<point x="165" y="446" type="line"/>
			<point x="408" y="446" type="line"/>
			<point x="408" y="0" type="line"/>
			<point x="488" y="0" type="line"/>
			<point x="488" y="516" type="line"/>
			<point x="85" y="516" type="line"/>
		</contour>
	</outline>
</glyph>
<glyph name="uni04A2" format="2">
	<advance width="744"/>
	<outline>
		<contour>
			<point x="635" y="-150" type="line"/>
			<point x="712" y="-150" type="line"/>
			<point x="712" y="74" type="line"/>
			<point x="614" y="74" type="line"/>
			<point x="614" y="698" type="line"/>
			<point x="530" y="698" type="line"/>
			<point x="530" y="390" type="line"/>
			<point x="177" y="390" type="line"/>
			<point x="177" y="698" type="line"/>
			<point x="93" y="698" type="line"/>
			<point x="93" y="0" type="line"/>
			<point x="177" y="0" type="line"/>
			<point x="177" y="316" type="line"/>
			<point x="530" y="316" type="line"/>
			<point x="530" y="0" type="line"/>
			<point x="635" y="0" type="line"/>
		</contour>
	</outline>
</glyph>
<glyph name="uni04A4" format="2">
	<advance width="916"/>
	<outline>
		<contour>
			<point x="93" y="0" type="line"/>
			<point x="177" y="0" type="line"/>
			<point x="177" y="316" type="line"/>
			<point x="510" y="316" type="line"/>
			<point x="510" y="0" type="line"/>
			<point x="594" y="0" type="line"/>
			<point x="594" y="624" type="line"/>
			<point x="890" y="624" type="line"/>
			<point x="890" y="698" type="line"/>
			<point x="510" y="698" type="line"/>
			<point x="510" y="390" type="line"/>
			<point x="177" y="390" type="line"/>
			<point x="177" y="698" type="line"/>
			<point x="93" y="698" type="line"/>
		</contour>
	</outline>
</glyph>
<glyph name="uni04A5" format="2">
	<advance width="757"/>
	<outline>
		<contour>
			<point x="85" y="0" type="line"/>
			<point x="165" y="0" type="line"/>
			<point x="165" y="231" type="line"/>
			<point x="407" y="231" type="line"/>
			<point x="407" y="0" type="line"/>
			<point x="487" y="0" type="line"/>
			<point x="487" y="446" type="line"/>
			<point x="733" y="446" type="line"/>
			<point x="733" y="516" type="line"/>
			<point x="407" y="516" type="line"/>
			<point x="407" y="301" type="line"/>
			<point x="165" y="301" type="line"/>
			<point x="165" y="516" type="line"/>
			<point x="85" y="516" type="line"/>
		</contour>
	</outline>
</glyph>
<glyph name="uni04AC" format="2">
	<advance width="572"/>
	<outline>
		<contour>
			<point x="550" y="624" type="line"/>
			<point x="550" y="698" type="line"/>
			<point x="22" y="698" type="line"/>
			<point x="22" y="624" type="line"/>
			<point x="244" y="624" type="line"/>
			<point x="244" y="0" type="line"/>
			<point x="349" y="0" type="line"/>
			<point x="349" y="-150" type="line"/>
			<point x="426" y="-150" type="line"/>
			<point x="426" y="74" type="line"/>
			<point x="328" y="74" type="line"/>
			<point x="328" y="624" type="line"/>
		</contour>
	</outline>
</glyph>
<glyph name="uni04B0" format="2">
	<advance width="593"/>
	<outline>
		<contour>
			<point x="253" y="0" type="line"/>
			<point x="337" y="0" type="line"/>
			<point x="337" y="212" type="line"/>
			<point x="501" y="212" type="line"/>
			<point x="501" y="276" type="line"/>
			<point x="337" y="276" type="line"/>
			<point x="580" y="698" type="line"/>
			<point x="484" y="698" type="line"/>
			<point x="299" y="361" type="line"/>
			<point x="296" y="361" type="line"/>
			<point x="109" y="698" type="line"/>
			<point x="13" y="698" type="line"/>
			<point x="253" y="276" type="line"/>
			<point x="88" y="276" type="line"/>
			<point x="88" y="212" type="line"/>
			<point x="253" y="212" type="line"/>
		</contour>
	</outline>
</glyph>
<glyph name="uni04B5" format="2">
	<advance width="711"/>
	<outline>
		<contour>
			<point x="612" y="-140" type="line"/>
			<point x="685" y="-140" type="line"/>
			<point x="685" y="70" type="line"/>
			<point x="599" y="70" type="line"/>
			<point x="599" y="516" type="line"/>
			<point x="519" y="516" type="line"/>
			<point x="519" y="70" type="line"/>
			<point x="266" y="70" type="line"/>
			<point x="266" y="446" type="line"/>
			<point x="432" y="446" type="line"/>
			<point x="432" y="516" type="line"/>
			<point x="20" y="516" type="line"/>
			<point x="20" y="446" type="line"/>
			<point x="186" y="446" type="line"/>
			<point x="186" y="0" type="line"/>
			<point x="612" y="0" type="line"/>
		</contour>
	</outline>
</glyph>
<glyph name="uni04CF" format="2">
	<advance width="250"/>
	<outline>
		<contour>
			<point x="85" y="0" type="line"/>
			<point x="165" y="0" type="line"/>
			<point x="165" y="740" type="line"/>
			<point x="85" y="740" type="line"/>
		</contour>
	</outline>
</glyph>
<glyph name="uni04E8" format="2">
	<advance width="708"/>
	<anchor x="354" y="0" name="bottom"/>
	<anchor x="354" y="698" name="top"/>
	<outline>
		<contour>
			<point x="354" y="-12" type="curve" smooth="yes"/>
			<point x="534" y="-12"/>
			<point x="650" y="115"/>
			<point x="650" y="349" type="curve" smooth="yes"/>
			<point x="650" y="583"/>
			<point x="534" y="710"/>
			<point x="354" y="710" type="curve" smooth="yes"/>
			<point x="174" y="710"/>
			<point x="58" y="583"/>
			<point x="58" y="349" type="curve" smooth="yes"/>
			<point x="58" y="115"/>
			<point x="174" y="-12"/>
		</contour>
		<contour>
			<point x="354" y="63" type="curve" smooth="yes"/>
			<point x="233" y="63"/>
			<point x="148" y="153"/>
			<point x="148" y="291" type="curve" smooth="yes"/>
			<point x="148" y="341" type="line"/>
			<point x="103" y="316" type="line"/>
			<point x="605" y="316" type="line"/>
			<point x="560" y="342" type="line"/>
			<point x="560" y="291" type="line" smooth="yes"/>
			<point x="560" y="153"/>
			<point x="475" y="63"/>
		</contour>
		<contour>
			<point x="354" y="635" type="curve" smooth="yes"/>
			<point x="475" y="635"/>
			<point x="560" y="545"/>
			<point x="560" y="407" type="curve" smooth="yes"/>
			<point x="560" y="366" type="line"/>
			<point x="605" y="390" type="line"/>
			<point x="103" y="390" type="line"/>
			<point x="148" y="374" type="line"/>
			<point x="148" y="407" type="line" smooth="yes"/>
			<point x="148" y="545"/>
			<point x="233" y="635"/>
		</contour>
	</outline>
</glyph>
<glyph name="uni04E9" format="2">
	<advance width="560"/>
	<anchor x="280" y="0" name="bottom"/>
	<anchor x="280" y="540" name="top"/>
	<outline>
		<contour>
			<point x="280" y="-12" type="curve" smooth="yes"/>
			<point x="418" y="-12"/>
			<point x="513" y="94"/>
			<point x="513" y="258" type="curve" smooth="yes"/>
			<point x="513" y="422"/>
			<point x="418" y="528"/>
			<point x="280" y="528" type="curve" smooth="yes"/>
			<point x="142" y="528"/>
			<point x="47" y="422"/>
			<point x="47" y="258" type="curve" smooth="yes"/>
			<point x="47" y="94"/>
			<point x="142" y="-12"/>
		</contour>
		<contour>
			<point x="280" y="59" type="curve" smooth="yes"/>
			<point x="194" y="59"/>
			<point x="133" y="112"/>
			<point x="133" y="221" type="curve" smooth="yes"/>
			<point x="133" y="231" type="line"/>
			<point x="427" y="231" type="line"/>
			<point x="427" y="221" type="line" smooth="yes"/>
			<point x="427" y="112"/>
			<point x="366" y="59"/>
		</contour>
		<contour>
			<point x="133" y="295" type="line" smooth="yes"/>
			<point x="133" y="404"/>
			<point x="194" y="457"/>
			<point x="280" y="457" type="curve" smooth="yes"/>
			<point x="366" y="457"/>
			<point x="427" y="404"/>
			<point x="427" y="295" type="curve" smooth="yes"/>
			<point x="427" y="293" type="line"/>
			<point x="133" y="293" type="line"/>
		</contour>
	</outline>
</glyph>
<glyph name="uni04F7" format="2">
	<advance width="435"/>
	<outline>
		<contour>
			<point x="85" y="0" type="line"/>
			<point x="178" y="0" type="line"/>
			<point x="178" y="-140" type="line"/>
			<point x="251" y="-140" type="line"/>
			<point x="251" y="70" type="line"/>
			<point x="165" y="70" type="line"/>
			<point x="165" y="446" type="line"/>
			<point x="411" y="446" type="line"/>
			<point x="411" y="516" type="line"/>
			<point x="85" y="516" type="line"/>
		</contour>
	</outline>
</glyph>
